<svg aria-hidden="true" style="position: absolute; width: 0; height: 0; overflow: hidden;" version="1.1" xmlns="http://www.w3.org/2000/svg" xmlns:xlink="http://www.w3.org/1999/xlink">
<defs>
<symbol id="icon-trash-o" viewBox="0 0 22 28">
<path d="M8 11.5v9c0 0.281-0.219 0.5-0.5 0.5h-1c-0.281 0-0.5-0.219-0.5-0.5v-9c0-0.281 0.219-0.5 0.5-0.5h1c0.281 0 0.5 0.219 0.5 0.5zM12 11.5v9c0 0.281-0.219 0.5-0.5 0.5h-1c-0.281 0-0.5-0.219-0.5-0.5v-9c0-0.281 0.219-0.5 0.5-0.5h1c0.281 0 0.5 0.219 0.5 0.5zM16 11.5v9c0 0.281-0.219 0.5-0.5 0.5h-1c-0.281 0-0.5-0.219-0.5-0.5v-9c0-0.281 0.219-0.5 0.5-0.5h1c0.281 0 0.5 0.219 0.5 0.5zM18 22.813v-14.812h-14v14.812c0 0.75 0.422 1.188 0.5 1.188h13c0.078 0 0.5-0.438 0.5-1.188zM7.5 6h7l-0.75-1.828c-0.047-0.063-0.187-0.156-0.266-0.172h-4.953c-0.094 0.016-0.219 0.109-0.266 0.172zM22 6.5v1c0 0.281-0.219 0.5-0.5 0.5h-1.5v14.812c0 1.719-1.125 3.187-2.5 3.187h-13c-1.375 0-2.5-1.406-2.5-3.125v-14.875h-1.5c-0.281 0-0.5-0.219-0.5-0.5v-1c0-0.281 0.219-0.5 0.5-0.5h4.828l1.094-2.609c0.313-0.766 1.25-1.391 2.078-1.391h5c0.828 0 1.766 0.625 2.078 1.391l1.094 2.609h4.828c0.281 0 0.5 0.219 0.5 0.5z"></path>
</symbol>
<symbol id="icon-close" viewBox="0 0 22 28">
<path d="M20.281 20.656c0 0.391-0.156 0.781-0.438 1.062l-2.125 2.125c-0.281 0.281-0.672 0.438-1.062 0.438s-0.781-0.156-1.062-0.438l-4.594-4.594-4.594 4.594c-0.281 0.281-0.672 0.438-1.062 0.438s-0.781-0.156-1.062-0.438l-2.125-2.125c-0.281-0.281-0.438-0.672-0.438-1.062s0.156-0.781 0.438-1.062l4.594-4.594-4.594-4.594c-0.281-0.281-0.438-0.672-0.438-1.062s0.156-0.781 0.438-1.062l2.125-2.125c0.281-0.281 0.672-0.438 1.062-0.438s0.781 0.156 1.062 0.438l4.594 4.594 4.594-4.594c0.281-0.281 0.672-0.438 1.062-0.438s0.781 0.156 1.062 0.438l2.125 2.125c0.281 0.281 0.438 0.672 0.438 1.062s-0.156 0.781-0.438 1.062l-4.594 4.594 4.594 4.594c0.281 0.281 0.438 0.672 0.438 1.062z"></path>
</symbol>
<symbol id="icon-x" viewBox="0 0 32 32">
<path d="M30 24.398l-8.406-8.398 8.406-8.398-5.602-5.602-8.398 8.402-8.402-8.402-5.598 5.602 8.398 8.398-8.398 8.398 5.598 5.602 8.402-8.402 8.398 8.402z"></path>
</symbol>
<symbol id="icon-transfer" viewBox="0 0 32 32">
<path d="M31.998 24h-24.006v4l-7.992-6 7.992-6v4h24.006zM0 12h23.998v4l8-6-8-6v4h-23.998z"></path>
</symbol>
<symbol id="icon-home" viewBox="0 0 32 32">
<path d="M32 18.451l-16-12.42-16 12.42v-5.064l16-12.42 16 12.42zM28 18v12h-8v-8h-8v8h-8v-12l12-9z"></path>
</symbol>
<symbol id="icon-office" viewBox="0 0 32 32">
<path d="M0 32h16v-32h-16v32zM10 4h4v4h-4v-4zM10 12h4v4h-4v-4zM10 20h4v4h-4v-4zM2 4h4v4h-4v-4zM2 12h4v4h-4v-4zM2 20h4v4h-4v-4zM18 10h14v2h-14zM18 32h4v-8h6v8h4v-18h-14z"></path>
</symbol>
<symbol id="icon-pencil" viewBox="0 0 32 32">
<path d="M27 0c2.761 0 5 2.239 5 5 0 1.126-0.372 2.164-1 3l-2 2-7-7 2-2c0.836-0.628 1.874-1 3-1zM2 23l-2 9 9-2 18.5-18.5-7-7-18.5 18.5zM22.362 11.362l-14 14-1.724-1.724 14-14 1.724 1.724z"></path>
</symbol>
<symbol id="icon-file-text2" viewBox="0 0 32 32">
<path d="M28.681 7.159c-0.694-0.947-1.662-2.053-2.724-3.116s-2.169-2.030-3.116-2.724c-1.612-1.182-2.393-1.319-2.841-1.319h-15.5c-1.378 0-2.5 1.121-2.5 2.5v27c0 1.378 1.122 2.5 2.5 2.5h23c1.378 0 2.5-1.122 2.5-2.5v-19.5c0-0.448-0.137-1.23-1.319-2.841zM24.543 5.457c0.959 0.959 1.712 1.825 2.268 2.543h-4.811v-4.811c0.718 0.556 1.584 1.309 2.543 2.268zM28 29.5c0 0.271-0.229 0.5-0.5 0.5h-23c-0.271 0-0.5-0.229-0.5-0.5v-27c0-0.271 0.229-0.5 0.5-0.5 0 0 15.499-0 15.5 0v7c0 0.552 0.448 1 1 1h7v19.5z"></path>
<path d="M23 26h-14c-0.552 0-1-0.448-1-1s0.448-1 1-1h14c0.552 0 1 0.448 1 1s-0.448 1-1 1z"></path>
<path d="M23 22h-14c-0.552 0-1-0.448-1-1s0.448-1 1-1h14c0.552 0 1 0.448 1 1s-0.448 1-1 1z"></path>
<path d="M23 18h-14c-0.552 0-1-0.448-1-1s0.448-1 1-1h14c0.552 0 1 0.448 1 1s-0.448 1-1 1z"></path>
</symbol>
<symbol id="icon-display" viewBox="0 0 32 32">
<path d="M0 2v20h32v-20h-32zM30 20h-28v-16h28v16zM21 24h-10l-1 4-2 2h16l-2-2z"></path>
</symbol>
<symbol id="icon-laptop" viewBox="0 0 32 32">
<path d="M28 22v-16c0-1.1-0.9-2-2-2h-20c-1.1 0-2 0.9-2 2v16h-4v6h32v-6h-4zM20 26h-8v-2h8v2zM26 22h-20v-15.996c0.001-0.001 0.002-0.003 0.004-0.004h19.993c0.001 0.001 0.003 0.002 0.004 0.004v15.996z"></path>
</symbol>
<symbol id="icon-users" viewBox="0 0 36 32">
<path d="M24 24.082v-1.649c2.203-1.241 4-4.337 4-7.432 0-4.971 0-9-6-9s-6 4.029-6 9c0 3.096 1.797 6.191 4 7.432v1.649c-6.784 0.555-12 3.888-12 7.918h28c0-4.030-5.216-7.364-12-7.918z"></path>
<path d="M10.225 24.854c1.728-1.13 3.877-1.989 6.243-2.513-0.47-0.556-0.897-1.176-1.265-1.844-0.95-1.726-1.453-3.627-1.453-5.497 0-2.689 0-5.228 0.956-7.305 0.928-2.016 2.598-3.265 4.976-3.734-0.529-2.39-1.936-3.961-5.682-3.961-6 0-6 4.029-6 9 0 3.096 1.797 6.191 4 7.432v1.649c-6.784 0.555-12 3.888-12 7.918h8.719c0.454-0.403 0.956-0.787 1.506-1.146z"></path>
</symbol>
<symbol id="icon-user-plus" viewBox="0 0 32 32">
<path d="M12 23c0-4.726 2.996-8.765 7.189-10.319 0.509-1.142 0.811-2.411 0.811-3.681 0-4.971 0-9-6-9s-6 4.029-6 9c0 3.096 1.797 6.191 4 7.432v1.649c-6.784 0.555-12 3.888-12 7.918h12.416c-0.271-0.954-0.416-1.96-0.416-3z"></path>
<path d="M23 14c-4.971 0-9 4.029-9 9s4.029 9 9 9c4.971 0 9-4.029 9-9s-4.029-9-9-9zM28 24h-4v4h-2v-4h-4v-2h4v-4h2v4h4v2z"></path>
</symbol>
<symbol id="icon-wrench" viewBox="0 0 32 32">
<path d="M31.342 25.559l-14.392-12.336c0.67-1.259 1.051-2.696 1.051-4.222 0-4.971-4.029-9-9-9-0.909 0-1.787 0.135-2.614 0.386l5.2 5.2c0.778 0.778 0.778 2.051 0 2.828l-3.172 3.172c-0.778 0.778-2.051 0.778-2.828 0l-5.2-5.2c-0.251 0.827-0.386 1.705-0.386 2.614 0 4.971 4.029 9 9 9 1.526 0 2.963-0.38 4.222-1.051l12.336 14.392c0.716 0.835 1.938 0.882 2.716 0.104l3.172-3.172c0.778-0.778 0.731-2-0.104-2.716z"></path>
</symbol>
<symbol id="icon-cog" viewBox="0 0 32 32">
<path d="M29.181 19.070c-1.679-2.908-0.669-6.634 2.255-8.328l-3.145-5.447c-0.898 0.527-1.943 0.829-3.058 0.829-3.361 0-6.085-2.742-6.085-6.125h-6.289c0.008 1.044-0.252 2.103-0.811 3.070-1.679 2.908-5.411 3.897-8.339 2.211l-3.144 5.447c0.905 0.515 1.689 1.268 2.246 2.234 1.676 2.903 0.672 6.623-2.241 8.319l3.145 5.447c0.895-0.522 1.935-0.82 3.044-0.82 3.35 0 6.067 2.725 6.084 6.092h6.289c-0.003-1.034 0.259-2.080 0.811-3.038 1.676-2.903 5.399-3.894 8.325-2.219l3.145-5.447c-0.899-0.515-1.678-1.266-2.232-2.226zM16 22.479c-3.578 0-6.479-2.901-6.479-6.479s2.901-6.479 6.479-6.479c3.578 0 6.479 2.901 6.479 6.479s-2.901 6.479-6.479 6.479z"></path>
</symbol>
<symbol id="icon-bin" viewBox="0 0 32 32">
<path d="M4 10v20c0 1.1 0.9 2 2 2h18c1.1 0 2-0.9 2-2v-20h-22zM10 28h-2v-14h2v14zM14 28h-2v-14h2v14zM18 28h-2v-14h2v14zM22 28h-2v-14h2v14z"></path>
<path d="M26.5 4h-6.5v-2.5c0-0.825-0.675-1.5-1.5-1.5h-7c-0.825 0-1.5 0.675-1.5 1.5v2.5h-6.5c-0.825 0-1.5 0.675-1.5 1.5v2.5h26v-2.5c0-0.825-0.675-1.5-1.5-1.5zM18 4h-6v-1.975h6v1.975z"></path>
</symbol>
<symbol id="icon-list1" viewBox="0 0 32 32">
<path d="M0 0h8v8h-8zM12 2h20v4h-20zM0 12h8v8h-8zM12 14h20v4h-20zM0 24h8v8h-8zM12 26h20v4h-20z"></path>
</symbol>
<symbol id="icon-plus" viewBox="0 0 32 32">
<path d="M31 12h-11v-11c0-0.552-0.448-1-1-1h-6c-0.552 0-1 0.448-1 1v11h-11c-0.552 0-1 0.448-1 1v6c0 0.552 0.448 1 1 1h11v11c0 0.552 0.448 1 1 1h6c0.552 0 1-0.448 1-1v-11h11c0.552 0 1-0.448 1-1v-6c0-0.552-0.448-1-1-1z"></path>
</symbol>
<symbol id="icon-minus" viewBox="0 0 32 32">
<path d="M0 13v6c0 0.552 0.448 1 1 1h30c0.552 0 1-0.448 1-1v-6c0-0.552-0.448-1-1-1h-30c-0.552 0-1 0.448-1 1z"></path>
</symbol>
<symbol id="icon-cancel-circle" viewBox="0 0 32 32">
<path d="M16 0c-8.837 0-16 7.163-16 16s7.163 16 16 16 16-7.163 16-16-7.163-16-16-16zM16 29c-7.18 0-13-5.82-13-13s5.82-13 13-13 13 5.82 13 13-5.82 13-13 13z"></path>
<path d="M21 8l-5 5-5-5-3 3 5 5-5 5 3 3 5-5 5 5 3-3-5-5 5-5z"></path>
</symbol>
<symbol id="icon-cross" viewBox="0 0 32 32">
<path d="M31.708 25.708c-0-0-0-0-0-0l-9.708-9.708 9.708-9.708c0-0 0-0 0-0 0.105-0.105 0.18-0.227 0.229-0.357 0.133-0.356 0.057-0.771-0.229-1.057l-4.586-4.586c-0.286-0.286-0.702-0.361-1.057-0.229-0.13 0.048-0.252 0.124-0.357 0.228 0 0-0 0-0 0l-9.708 9.708-9.708-9.708c-0-0-0-0-0-0-0.105-0.104-0.227-0.18-0.357-0.228-0.356-0.133-0.771-0.057-1.057 0.229l-4.586 4.586c-0.286 0.286-0.361 0.702-0.229 1.057 0.049 0.13 0.124 0.252 0.229 0.357 0 0 0 0 0 0l9.708 9.708-9.708 9.708c-0 0-0 0-0 0-0.104 0.105-0.18 0.227-0.229 0.357-0.133 0.355-0.057 0.771 0.229 1.057l4.586 4.586c0.286 0.286 0.702 0.361 1.057 0.229 0.13-0.049 0.252-0.124 0.357-0.229 0-0 0-0 0-0l9.708-9.708 9.708 9.708c0 0 0 0 0 0 0.105 0.105 0.227 0.18 0.357 0.229 0.356 0.133 0.771 0.057 1.057-0.229l4.586-4.586c0.286-0.286 0.362-0.702 0.229-1.057-0.049-0.13-0.124-0.252-0.229-0.357z"></path>
</symbol>
<symbol id="icon-checkmark" viewBox="0 0 32 32">
<path d="M27 4l-15 15-7-7-5 5 12 12 20-20z"></path>
</symbol>
<symbol id="icon-add" viewBox="0 0 24 24">
<path d="M18.984 12.984h-6v6h-1.969v-6h-6v-1.969h6v-6h1.969v6h6v1.969z"></path>
</symbol>
<symbol id="icon-list" viewBox="0 0 24 24">
<path d="M8 7h13c0.552 0 1-0.448 1-1s-0.448-1-1-1h-13c-0.552 0-1 0.448-1 1s0.448 1 1 1zM8 13h13c0.552 0 1-0.448 1-1s-0.448-1-1-1h-13c-0.552 0-1 0.448-1 1s0.448 1 1 1zM8 19h13c0.552 0 1-0.448 1-1s-0.448-1-1-1h-13c-0.552 0-1 0.448-1 1s0.448 1 1 1zM3 7c0.552 0 1-0.448 1-1s-0.448-1-1-1-1 0.448-1 1 0.448 1 1 1zM3 13c0.552 0 1-0.448 1-1s-0.448-1-1-1-1 0.448-1 1 0.448 1 1 1zM3 19c0.552 0 1-0.448 1-1s-0.448-1-1-1-1 0.448-1 1 0.448 1 1 1z"></path>
</symbol>
<symbol id="icon-plus1" viewBox="0 0 24 24">
<path d="M5 13h6v6c0 0.552 0.448 1 1 1s1-0.448 1-1v-6h6c0.552 0 1-0.448 1-1s-0.448-1-1-1h-6v-6c0-0.552-0.448-1-1-1s-1 0.448-1 1v6h-6c-0.552 0-1 0.448-1 1s0.448 1 1 1z"></path>
</symbol>
<symbol id="icon-office" viewBox="0 0 24 24">
<path d="M0 24h12v-24h-12v24zM7.5 3h3v3h-3v-3zM7.5 9h3v3h-3v-3zM7.5 15h3v3h-3v-3zM1.5 3h3v3h-3v-3zM1.5 9h3v3h-3v-3zM1.5 15h3v3h-3v-3zM13.5 7.5h10.5v1.5h-10.5zM13.5 24h3v-6h4.5v6h3v-13.5h-10.5z"></path>
</symbol>
<symbol id="icon-pencil" viewBox="0 0 24 24">
<path d="M20.25 0c2.071 0 3.75 1.679 3.75 3.75 0 0.844-0.279 1.623-0.75 2.25l-1.5 1.5-5.25-5.25 1.5-1.5c0.627-0.471 1.406-0.75 2.25-0.75zM1.5 17.25l-1.5 6.75 6.75-1.5 13.875-13.875-5.25-5.25-13.875 13.875zM16.771 8.521l-10.5 10.5-1.293-1.293 10.5-10.5 1.293 1.293z"></path>
</symbol>
<symbol id="icon-file-text2" viewBox="0 0 24 24">
<path d="M21.511 5.369c-0.521-0.71-1.246-1.54-2.043-2.337s-1.627-1.523-2.337-2.043c-1.209-0.886-1.795-0.989-2.131-0.989h-11.625c-1.034 0-1.875 0.841-1.875 1.875v20.25c0 1.034 0.841 1.875 1.875 1.875h17.25c1.034 0 1.875-0.841 1.875-1.875v-14.625c0-0.336-0.102-0.922-0.989-2.131zM18.407 4.093c0.72 0.72 1.284 1.369 1.701 1.907h-3.608v-3.608c0.539 0.417 1.188 0.982 1.907 1.701zM21 22.125c0 0.203-0.172 0.375-0.375 0.375h-17.25c-0.203 0-0.375-0.172-0.375-0.375v-20.25c0-0.203 0.172-0.375 0.375-0.375 0 0 11.624-0 11.625 0v5.25c0 0.414 0.336 0.75 0.75 0.75h5.25v14.625z"></path>
<path d="M17.25 19.5h-10.5c-0.414 0-0.75-0.336-0.75-0.75s0.336-0.75 0.75-0.75h10.5c0.414 0 0.75 0.336 0.75 0.75s-0.336 0.75-0.75 0.75z"></path>
<path d="M17.25 16.5h-10.5c-0.414 0-0.75-0.336-0.75-0.75s0.336-0.75 0.75-0.75h10.5c0.414 0 0.75 0.336 0.75 0.75s-0.336 0.75-0.75 0.75z"></path>
<path d="M17.25 13.5h-10.5c-0.414 0-0.75-0.336-0.75-0.75s0.336-0.75 0.75-0.75h10.5c0.414 0 0.75 0.336 0.75 0.75s-0.336 0.75-0.75 0.75z"></path>
</symbol>
<symbol id="icon-display" viewBox="0 0 24 24">
<path d="M0 1.5v15h24v-15h-24zM22.5 15h-21v-12h21v12zM15.75 18h-7.5l-0.75 3-1.5 1.5h12l-1.5-1.5z"></path>
</symbol>
<symbol id="icon-laptop" viewBox="0 0 24 24">
<path d="M21 16.5v-12c0-0.825-0.675-1.5-1.5-1.5h-15c-0.825 0-1.5 0.675-1.5 1.5v12h-3v4.5h24v-4.5h-3zM15 19.5h-6v-1.5h6v1.5zM19.5 16.5h-15v-11.997c0.001-0.001 0.002-0.002 0.003-0.003h14.995c0.001 0.001 0.002 0.002 0.003 0.003v11.997z"></path>
</symbol>
<symbol id="icon-users" viewBox="0 0 27 24">
<path d="M18 18.061v-1.237c1.652-0.931 3-3.252 3-5.574 0-3.728 0-6.75-4.5-6.75s-4.5 3.022-4.5 6.75c0 2.322 1.348 4.643 3 5.574v1.237c-5.088 0.416-9 2.916-9 5.939h21c0-3.023-3.912-5.523-9-5.939z"></path>
<path d="M7.669 18.64c1.296-0.847 2.908-1.491 4.683-1.885-0.353-0.417-0.673-0.882-0.949-1.383-0.713-1.295-1.090-2.72-1.090-4.123 0-2.017 0-3.921 0.717-5.479 0.696-1.512 1.948-2.449 3.732-2.8-0.396-1.792-1.452-2.971-4.261-2.971-4.5 0-4.5 3.022-4.5 6.75 0 2.322 1.348 4.643 3 5.574v1.237c-5.088 0.416-9 2.916-9 5.939h6.539c0.34-0.303 0.717-0.59 1.129-0.86z"></path>
</symbol>
<symbol id="icon-user-plus" viewBox="0 0 24 24">
<path d="M9 17.25c0-3.545 2.247-6.574 5.391-7.739 0.382-0.856 0.609-1.809 0.609-2.761 0-3.728 0-6.75-4.5-6.75s-4.5 3.022-4.5 6.75c0 2.322 1.348 4.643 3 5.574v1.237c-5.088 0.416-9 2.916-9 5.939h9.312c-0.203-0.716-0.312-1.47-0.312-2.25z"></path>
<path d="M17.25 10.5c-3.728 0-6.75 3.022-6.75 6.75s3.022 6.75 6.75 6.75c3.728 0 6.75-3.022 6.75-6.75s-3.022-6.75-6.75-6.75zM21 18h-3v3h-1.5v-3h-3v-1.5h3v-3h1.5v3h3v1.5z"></path>
</symbol>
<symbol id="icon-wrench" viewBox="0 0 24 24">
<path d="M23.506 19.169l-10.794-9.252c0.503-0.944 0.788-2.022 0.788-3.167 0-3.728-3.022-6.75-6.75-6.75-0.682 0-1.34 0.102-1.96 0.29l3.9 3.9c0.583 0.583 0.583 1.538 0 2.121l-2.379 2.379c-0.583 0.583-1.538 0.583-2.121 0l-3.9-3.9c-0.188 0.62-0.29 1.279-0.29 1.96 0 3.728 3.022 6.75 6.75 6.75 1.145 0 2.222-0.285 3.167-0.788l9.252 10.794c0.537 0.626 1.454 0.662 2.037 0.078l2.379-2.379c0.583-0.583 0.548-1.5-0.078-2.037z"></path>
</symbol>
<symbol id="icon-cog" viewBox="0 0 24 24">
<path d="M21.886 14.303c-1.259-2.181-0.502-4.976 1.691-6.246l-2.358-4.085c-0.674 0.395-1.457 0.622-2.293 0.622-2.52 0-4.563-2.057-4.563-4.594h-4.717c0.006 0.783-0.189 1.577-0.608 2.303-1.259 2.181-4.058 2.923-6.255 1.658l-2.358 4.085c0.679 0.386 1.267 0.951 1.685 1.675 1.257 2.178 0.504 4.967-1.681 6.24l2.358 4.085c0.671-0.391 1.451-0.615 2.283-0.615 2.512 0 4.55 2.044 4.563 4.569h4.717c-0.002-0.775 0.194-1.56 0.609-2.279 1.257-2.177 4.049-2.92 6.244-1.664l2.358-4.085c-0.675-0.386-1.258-0.949-1.674-1.669zM12 16.859c-2.684 0-4.859-2.176-4.859-4.859s2.176-4.859 4.859-4.859c2.684 0 4.859 2.176 4.859 4.859s-2.176 4.859-4.859 4.859z"></path>
</symbol>
<symbol id="icon-bin" viewBox="0 0 24 24">
<path d="M3 7.5v15c0 0.825 0.675 1.5 1.5 1.5h13.5c0.825 0 1.5-0.675 1.5-1.5v-15h-16.5zM7.5 21h-1.5v-10.5h1.5v10.5zM10.5 21h-1.5v-10.5h1.5v10.5zM13.5 21h-1.5v-10.5h1.5v10.5zM16.5 21h-1.5v-10.5h1.5v10.5z"></path>
<path d="M19.875 3h-4.875v-1.875c0-0.619-0.506-1.125-1.125-1.125h-5.25c-0.619 0-1.125 0.506-1.125 1.125v1.875h-4.875c-0.619 0-1.125 0.506-1.125 1.125v1.875h19.5v-1.875c0-0.619-0.506-1.125-1.125-1.125zM13.5 3h-4.5v-1.481h4.5v1.481z"></path>
</symbol>
<symbol id="icon-list1" viewBox="0 0 24 24">
<path d="M0 0h6v6h-6zM9 1.5h15v3h-15zM0 9h6v6h-6zM9 10.5h15v3h-15zM0 18h6v6h-6zM9 19.5h15v3h-15z"></path>
</symbol>
<symbol id="icon-plus" viewBox="0 0 24 24">
<path d="M23.25 9h-8.25v-8.25c0-0.414-0.336-0.75-0.75-0.75h-4.5c-0.414 0-0.75 0.336-0.75 0.75v8.25h-8.25c-0.414 0-0.75 0.336-0.75 0.75v4.5c0 0.414 0.336 0.75 0.75 0.75h8.25v8.25c0 0.414 0.336 0.75 0.75 0.75h4.5c0.414 0 0.75-0.336 0.75-0.75v-8.25h8.25c0.414 0 0.75-0.336 0.75-0.75v-4.5c0-0.414-0.336-0.75-0.75-0.75z"></path>
</symbol>
<symbol id="icon-minus" viewBox="0 0 24 24">
<path d="M0 9.75v4.5c0 0.414 0.336 0.75 0.75 0.75h22.5c0.414 0 0.75-0.336 0.75-0.75v-4.5c0-0.414-0.336-0.75-0.75-0.75h-22.5c-0.414 0-0.75 0.336-0.75 0.75z"></path>
</symbol>
<symbol id="icon-cancel-circle" viewBox="0 0 24 24">
<path d="M12 0c-6.627 0-12 5.373-12 12s5.373 12 12 12 12-5.373 12-12-5.373-12-12-12zM12 21.75c-5.385 0-9.75-4.365-9.75-9.75s4.365-9.75 9.75-9.75 9.75 4.365 9.75 9.75-4.365 9.75-9.75 9.75z"></path>
<path d="M15.75 6l-3.75 3.75-3.75-3.75-2.25 2.25 3.75 3.75-3.75 3.75 2.25 2.25 3.75-3.75 3.75 3.75 2.25-2.25-3.75-3.75 3.75-3.75z"></path>
</symbol>
<symbol id="icon-cross" viewBox="0 0 24 24">
<path d="M23.781 19.281c-0-0-0-0-0-0l-7.281-7.281 7.281-7.281c0-0 0-0 0-0 0.078-0.078 0.135-0.17 0.171-0.268 0.1-0.267 0.043-0.578-0.172-0.793l-3.439-3.439c-0.214-0.214-0.526-0.271-0.793-0.172-0.098 0.036-0.189 0.093-0.268 0.171 0 0-0 0-0 0l-7.281 7.281-7.281-7.281c-0-0-0-0-0-0-0.078-0.078-0.17-0.135-0.268-0.171-0.267-0.1-0.578-0.043-0.793 0.172l-3.439 3.439c-0.214 0.214-0.271 0.526-0.172 0.793 0.036 0.098 0.093 0.189 0.171 0.268 0 0 0 0 0 0l7.281 7.281-7.281 7.281c-0 0-0 0-0 0-0.078 0.078-0.135 0.17-0.171 0.268-0.1 0.267-0.043 0.578 0.172 0.793l3.439 3.439c0.214 0.214 0.526 0.271 0.793 0.172 0.098-0.036 0.189-0.093 0.268-0.171 0-0 0-0 0-0l7.281-7.281 7.281 7.281c0 0 0 0 0 0 0.078 0.078 0.17 0.135 0.268 0.171 0.267 0.1 0.579 0.043 0.793-0.172l3.439-3.439c0.214-0.214 0.271-0.526 0.172-0.793-0.036-0.097-0.093-0.189-0.171-0.268z"></path>
</symbol>
<symbol id="icon-checkmark" viewBox="0 0 24 24">
<path d="M20.25 3l-11.25 11.25-5.25-5.25-3.75 3.75 9 9 15-15z"></path>
</symbol>
<symbol id="icon-trash-can1" viewBox="0 0 32 32">
<path d="M23 7h4v1h-2v18.993c0 1.671-1.343 3.007-3 3.007h-11c-1.666 0-3-1.346-3-3.007v-18.993h-2v-1h6v-1.995c0-1.111 0.894-2.005 1.997-2.005h5.005c1.102 0 1.997 0.898 1.997 2.005v1.995h2zM12 10v17h1v-17h-1zM16 10v17h1v-17h-1zM20 10v17h1v-17h-1zM14.003 4c-0.554 0-1.003 0.443-1.003 0.999v2.001h7v-2.001c0-0.552-0.438-0.999-1.003-0.999h-4.994z"></path>
</symbol>
<symbol id="icon-trash-can" viewBox="0 0 32 32">
<path d="M23 7h4v1h-2v18.993c0 1.671-1.343 3.007-3 3.007h-11c-1.666 0-3-1.346-3-3.007v-18.993h-2v-1h6v-1.995c0-1.111 0.894-2.005 1.997-2.005h5.005c1.102 0 1.997 0.898 1.997 2.005v1.995h2zM9 8v19.005c0 1.102 0.893 1.995 1.992 1.995h11.016c1.1 0 1.992-0.902 1.992-1.995v-19.005h-15zM12 10v17h1v-17h-1zM16 10v17h1v-17h-1zM20 10v17h1v-17h-1zM14.003 4c-0.554 0-1.003 0.443-1.003 0.999v2.001h7v-2.001c0-0.552-0.438-0.999-1.003-0.999h-4.994z"></path>
</symbol>
</defs>
</svg>
